<svg version="1.1" preserveAspectRatio="none" xmlns="http://www.w3.org/2000/svg" width="500" height="500" viewBox="0 0 500 500"><rect width="100%" height="100%" fill="#010506" fill-opacity="1"/><svg viewBox="136.1475 381.7388 494.0482 104" width="333" height="70.09842359510671" x="83.5px" y="214.9508px" xmlns="http://www.w3.org/2000/svg" xmlns:xlink="http://www.w3.org/1999/xlink" preserveAspectRatio="none"><defs></defs><style>.background {fill:#010506;fill-opacity:1;}.companyName {fill:#EEF8F7;fill-opacity:1;}.icon1 {fill:#E35F21;fill-opacity:1;}.icon2 {fill:#EEF8F7;fill-opacity:1;}.icon3 {fill:#FAAB05;fill-opacity:1;}.icon3-str {stroke:#FAAB05;stroke-opacity:1;}.shapeStroke-str {stroke:#E35F21;stroke-opacity:1;}</style><g opacity="1" transform="rotate(0 136.1475 381.7388)">
<svg width="104" height="104" x="136.1475" y="381.7388" version="1.1" preserveAspectRatio="none" viewBox="0 0 104 104">
  <defs><rect x="0" y="0" width="104" height="104" rx="150px" ry="150px" id="id-3WKIowxM31689138814318"></rect></defs><use class="icon1 shapeStroke-str" style="stroke-width:0;" xlink:href="#id-3WKIowxM31689138814318"></use>
</svg>
</g><g opacity="1" transform="rotate(0 151.7475 405.1107)">
<svg width="72.8" height="57.2563" x="151.7475" y="405.1107" version="1.1" preserveAspectRatio="none" viewBox="5 14.607999801635742 90 70.78399658203125">
  <g transform="matrix(1 0 0 1 0 0)" class="background"><g display="none"><rect x="-507.879" y="-405.155" display="inline" width="1286.936" height="695.155"></rect></g><g><g><path d="M63.649,14.608H36.351H24.504L5,50l19.504,35.392h11.847h27.298h11.847L95,50L75.496,14.608H63.649z M73.46,81.946H61.613    H38.387L20.782,50l17.605-31.946h23.226H73.46L91.065,50L73.46,81.946z"></path><path d="M54.319,31.538h-8.637L35.507,50l10.174,18.461h8.637h11.847L76.34,50L66.166,31.538H54.319z M52.283,65.016h-4.566    L39.443,50l8.274-15.016h4.566L60.558,50L52.283,65.016z"></path></g></g></g>
</svg>
</g><g opacity="1" transform="rotate(0 260.1475 393.7388)">
<svg width="370.0482" height="80" x="260.1475" y="393.7388" version="1.1" preserveAspectRatio="none" viewBox="2.36 -32.2 150.24 32.480000000000004">
  <g transform="matrix(1 0 0 1 0 0)" class="companyName"><path id="id-D6z1nYkh7" d="M27.48-28.28L27.48 0L20.64 0L9.20-17.36L9.20 0L2.36 0L2.36-28.28L9.20-28.28L20.64-10.76L20.64-28.28L27.48-28.28Z M32.36-28.60Q32.36-30.16 33.48-31.18Q34.60-32.20 36.44-32.20L36.44-32.20Q38.28-32.20 39.40-31.18Q40.52-30.16 40.52-28.60L40.52-28.60Q40.52-27.08 39.40-26.06Q38.28-25.04 36.44-25.04L36.44-25.04Q34.60-25.04 33.48-26.06Q32.36-27.08 32.36-28.60L32.36-28.60ZM33-22.32L39.84-22.32L39.84 0L33 0L33-22.32Z M67.12 0L58.88 0L52.20-9.48L52.20 0L45.36 0L45.36-29.60L52.20-29.60L52.20-13.36L58.88-22.32L66.92-22.32L57.92-11.16L67.12 0Z M92.16 0L83.92 0L77.24-9.48L77.24 0L70.40 0L70.40-29.60L77.24-29.60L77.24-13.36L83.92-22.32L91.96-22.32L82.96-11.16L92.16 0Z M105.88-22.60Q109.20-22.60 111.82-21.22Q114.44-19.84 115.94-17.24Q117.44-14.64 117.44-11.16L117.44-11.16Q117.44-7.68 115.94-5.08Q114.44-2.48 111.82-1.10Q109.20 0.28 105.88 0.28L105.88 0.28Q102.56 0.28 99.92-1.10Q97.28-2.48 95.78-5.08Q94.28-7.68 94.28-11.16L94.28-11.16Q94.28-14.64 95.78-17.24Q97.28-19.84 99.92-21.22Q102.56-22.60 105.88-22.60L105.88-22.60ZM105.88-16.68Q103.92-16.68 102.58-15.26Q101.24-13.84 101.24-11.16L101.24-11.16Q101.24-8.48 102.58-7.08Q103.92-5.68 105.88-5.68L105.88-5.68Q107.84-5.68 109.16-7.08Q110.48-8.48 110.48-11.16L110.48-11.16Q110.48-13.84 109.16-15.26Q107.84-16.68 105.88-16.68L105.88-16.68Z M142.12-7.96Q142.12-5.72 140.98-3.84Q139.84-1.96 137.62-0.84Q135.40 0.28 132.24 0.28L132.24 0.28Q127.48 0.28 124.40-2.04Q121.32-4.36 121.04-8.52L121.04-8.52L128.32-8.52Q128.48-6.92 129.46-6Q130.44-5.08 131.96-5.08L131.96-5.08Q133.28-5.08 134.04-5.80Q134.80-6.52 134.80-7.72L134.80-7.72Q134.80-8.80 134.10-9.52Q133.40-10.24 132.36-10.70Q131.32-11.16 129.48-11.80L129.48-11.80Q126.80-12.72 125.10-13.58Q123.40-14.44 122.18-16.14Q120.96-17.84 120.96-20.56L120.96-20.56Q120.96-23.08 122.24-24.92Q123.52-26.76 125.78-27.74Q128.04-28.72 130.96-28.72L130.96-28.72Q135.68-28.72 138.46-26.48Q141.24-24.24 141.60-20.32L141.60-20.32L134.20-20.32Q134-21.72 133.18-22.54Q132.36-23.36 130.96-23.36L130.96-23.36Q129.76-23.36 129.02-22.72Q128.28-22.08 128.28-20.84L128.28-20.84Q128.28-19.84 128.94-19.14Q129.60-18.44 130.60-18Q131.60-17.56 133.48-16.88L133.48-16.88Q136.20-15.96 137.92-15.06Q139.64-14.16 140.88-12.44Q142.12-10.72 142.12-7.96L142.12-7.96Z M145.52-6.84L152.60-6.84L152.60 0L145.52 0L145.52-6.84Z"/></g>
</svg>
</g></svg></svg>